<svg t="1731010497461" class="icon" viewBox="0 0 1024 1024" version="1.1" xmlns="http://www.w3.org/2000/svg" p-id="15327" width="512" height="512"><path d="M512.1 521.1c-33.1 0-60-26.9-60-60V123.7c0-33.1 26.9-60 60-60s60 26.9 60 60v337.4c0 33.1-26.9 60-60 60z" fill="#1296db" p-id="15328"></path><path d="M864.8 350.7m-60 0a60 60 0 1 0 120 0 60 60 0 1 0-120 0Z" fill="#1296db" p-id="15329"></path><path d="M917.7 322L810 375c0 0.1 0.1 0.2 0.1 0.3 0.1 0.3 0.3 0.6 0.4 0.8 0.7 1.4 1.3 2.9 1.9 4.3 0.2 0.4 0.4 0.9 0.6 1.3 0.7 1.7 1.5 3.4 2.2 5.1 0 0.1 0.1 0.2 0.1 0.3 0.7 1.6 1.3 3.3 2 4.9 0.2 0.5 0.4 0.9 0.5 1.4 0.6 1.5 1.2 3.1 1.8 4.7 0.1 0.2 0.1 0.4 0.2 0.6 0.6 1.7 1.3 3.5 1.9 5.2 0.2 0.5 0.3 0.9 0.5 1.4 0.5 1.5 1 2.9 1.5 4.4 0.1 0.3 0.2 0.7 0.3 1 0.6 1.8 1.1 3.5 1.7 5.3 0.1 0.4 0.3 0.8 0.4 1.3 0.4 1.5 0.9 2.9 1.3 4.4 0.1 0.4 0.2 0.9 0.4 1.3l1.5 5.4c0.1 0.3 0.2 0.7 0.3 1 0.4 1.5 0.8 3 1.1 4.6 0.1 0.5 0.2 0.9 0.3 1.4 0.4 1.8 0.9 3.6 1.3 5.5 0 0.2 0.1 0.4 0.1 0.6 0.4 1.7 0.7 3.3 1.1 5l0.3 1.5c0.3 1.7 0.7 3.5 1 5.3 0 0.1 0 0.2 0.1 0.4 0.3 1.9 0.6 3.7 0.9 5.6 0.1 0.5 0.2 1 0.2 1.5 0.2 1.6 0.5 3.2 0.7 4.8 0 0.3 0.1 0.6 0.1 1 0.3 1.9 0.5 3.8 0.7 5.6 0.1 0.5 0.1 0.9 0.2 1.4 0.2 1.6 0.4 3.1 0.5 4.7 0 0.4 0.1 0.9 0.1 1.3 0.2 1.9 0.4 3.8 0.5 5.7 0 0.4 0.1 0.8 0.1 1.2l0.3 4.8c0 0.5 0.1 1 0.1 1.5 0.1 1.9 0.2 3.8 0.3 5.8v0.8c0.1 1.7 0.1 3.4 0.2 5.1v1.6c0 2 0.1 3.9 0.1 5.9 0 181.1-146.9 328-328 328s-328-146.9-328-328c0-48.4 10.5-94.4 29.3-135.7-10.4 18-29.8 30-52 30-33.1 0-60-26.9-60-60 0-8.5 1.8-16.6 5-24h-0.3c-27 57.6-42 121.9-42 189.7 0 247.4 200.6 448 448 448s448-200.6 448-448c-0.2-68.1-15.3-132.4-42.2-190z" fill="#1296db" p-id="15330"></path><path d="M825.5 416c0.1 0.4 0.3 0.8 0.4 1.3-0.2-0.5-0.3-0.9-0.4-1.3zM810 375.3c0.1 0.3 0.3 0.6 0.4 0.8-0.1-0.3-0.2-0.5-0.4-0.8zM817.2 392c0.2 0.5 0.4 0.9 0.5 1.4-0.2-0.4-0.4-0.9-0.5-1.4zM823.5 409.7c0.1 0.3 0.2 0.7 0.3 1-0.1-0.3-0.2-0.7-0.3-1zM815.1 386.9c0 0.1 0.1 0.2 0.1 0.3 0-0.2-0.1-0.2-0.1-0.3zM821.5 403.9c0.2 0.5 0.3 0.9 0.5 1.4-0.1-0.5-0.3-1-0.5-1.4zM819.5 398.1c0.1 0.2 0.1 0.4 0.2 0.6-0.1-0.2-0.2-0.4-0.2-0.6zM812.3 380.4c0.2 0.4 0.4 0.9 0.6 1.3-0.2-0.4-0.4-0.8-0.6-1.3zM833.2 446.4l0.3 1.5-0.3-1.5zM839 491c0 0.5 0.1 1 0.1 1.5 0-0.5 0-1-0.1-1.5zM838.6 485.1c0 0.4 0.1 0.8 0.1 1.2 0-0.4-0.1-0.8-0.1-1.2zM838 478.1c0 0.4 0.1 0.9 0.1 1.3 0-0.5-0.1-0.9-0.1-1.3zM839.6 504.2v0zM839.4 498.3v0zM837.3 472c0.1 0.5 0.1 0.9 0.2 1.4-0.1-0.5-0.2-0.9-0.2-1.4zM835.5 459.1c0.1 0.5 0.2 1 0.2 1.5-0.1-0.5-0.2-1-0.2-1.5zM836.4 465.4c0 0.3 0.1 0.6 0.1 1 0-0.4 0-0.7-0.1-1zM829 428.3c0.1 0.3 0.2 0.7 0.3 1-0.2-0.3-0.2-0.7-0.3-1zM832 440.8c0 0.2 0.1 0.4 0.1 0.6 0-0.2-0.1-0.4-0.1-0.6zM830.4 433.9c0.1 0.5 0.2 0.9 0.3 1.4-0.1-0.5-0.2-0.9-0.3-1.4zM834.5 453.1c0 0.1 0 0.2 0.1 0.4-0.1-0.1-0.1-0.2-0.1-0.4zM827.1 421.6c0.1 0.4 0.2 0.9 0.4 1.3-0.1-0.4-0.2-0.8-0.4-1.3z" fill="#1296db" p-id="15331"></path><path d="M213 376c1.6-2.8 3-5.7 4.2-8.8-1.5 2.9-2.9 5.8-4.2 8.8z" fill="#1296db" p-id="15332"></path><path d="M216 322c-9.3-21.2-30.4-36-55-36s-45.7 14.8-55 36c-3.2 7.4-5 15.5-5 24 0 33.1 26.9 60 60 60 22.2 0 41.6-12.1 52-30 1.3-3 2.7-5.9 4.2-8.8 2.5-6.6 3.9-13.7 3.9-21.2-0.1-8.5-1.9-16.6-5.1-24z" fill="#1296db" p-id="15333"></path></svg>
