<?xml version="1.0" standalone="no"?><!DOCTYPE svg PUBLIC "-//W3C//DTD SVG 1.1//EN" "http://www.w3.org/Graphics/SVG/1.1/DTD/svg11.dtd"><svg t="1730395182383" class="icon" viewBox="0 0 1024 1024" version="1.1" xmlns="http://www.w3.org/2000/svg" p-id="40611" xmlns:xlink="http://www.w3.org/1999/xlink" width="200" height="200"><path d="M512 675.84c-92.16 0-163.84-76.8-163.84-163.84S419.84 348.16 512 348.16s163.84 76.8 163.84 163.84-71.68 163.84-163.84 163.84z m0-256c-51.2 0-92.16 40.96-92.16 92.16s40.96 92.16 92.16 92.16 92.16-40.96 92.16-92.16S563.2 419.84 512 419.84z" fill="#1296db" p-id="40612"></path><path d="M517.12 1018.88c-30.72 0-66.56-15.36-87.04-35.84-25.6-25.6-35.84-56.32-35.84-87.04 0-10.24 0-15.36-5.12-20.48s-10.24-10.24-15.36-10.24c-10.24-5.12-15.36-5.12-20.48-5.12s-10.24 5.12-15.36 10.24c-15.36 15.36-25.6 20.48-40.96 30.72-30.72 10.24-66.56 10.24-97.28 0-20.48-10.24-30.72-20.48-46.08-30.72-10.24-10.24-20.48-25.6-25.6-40.96-5.12-15.36-10.24-30.72-10.24-46.08s5.12-30.72 10.24-46.08 15.36-30.72 25.6-40.96c5.12-5.12 10.24-10.24 10.24-20.48v-20.48c-5.12-5.12-5.12-10.24-10.24-15.36-5.12-5.12-10.24-5.12-15.36-5.12h-10.24c-30.72 0-66.56-15.36-87.04-35.84-25.6-25.6-35.84-56.32-35.84-87.04 0-30.72 15.36-66.56 35.84-87.04s56.32-35.84 87.04-35.84c10.24 0 15.36 0 20.48-5.12 5.12 0 10.24-5.12 10.24-15.36 5.12-5.12 5.12-10.24 5.12-20.48 0-5.12-5.12-10.24-10.24-15.36-10.24-15.36-20.48-25.6-25.6-40.96-10.24-15.36-10.24-30.72-10.24-46.08 0-15.36 5.12-30.72 10.24-46.08 5.12-20.48 15.36-30.72 25.6-46.08s25.6-20.48 40.96-25.6c30.72-10.24 66.56-10.24 97.28 0 10.24 5.12 25.6 15.36 35.84 25.6 5.12 5.12 10.24 10.24 20.48 10.24h20.48c5.12 0 5.12 0 10.24-5.12 5.12 0 5.12-5.12 10.24-10.24s5.12-10.24 5.12-15.36v-5.12c0-30.72 15.36-66.56 35.84-87.04 46.08-46.08 128-46.08 174.08 0 25.6 25.6 35.84 56.32 35.84 87.04 0 10.24 0 15.36 5.12 20.48 5.12 5.12 10.24 10.24 15.36 10.24 5.12 5.12 10.24 5.12 20.48 0 5.12 0 10.24-5.12 15.36-10.24 15.36-15.36 25.6-20.48 40.96-30.72 30.72-10.24 66.56-10.24 97.28 0 10.24 15.36 20.48 25.6 35.84 35.84 10.24 10.24 20.48 25.6 25.6 40.96s10.24 30.72 10.24 46.08-5.12 30.72-10.24 46.08-15.36 30.72-25.6 40.96c-5.12 5.12-10.24 10.24-10.24 20.48v20.48c0 5.12 0 5.12 5.12 10.24 0 5.12 5.12 5.12 10.24 10.24s10.24 5.12 15.36 5.12h5.12c30.72 0 66.56 15.36 87.04 35.84 25.6 25.6 35.84 56.32 35.84 87.04 0 30.72-15.36 66.56-35.84 87.04-25.6 25.6-56.32 35.84-87.04 35.84-10.24 0-15.36 0-20.48 5.12s-10.24 10.24-10.24 15.36c-5.12 5.12-5.12 10.24 0 20.48 0 5.12 5.12 10.24 10.24 15.36 15.36 15.36 20.48 25.6 30.72 40.96 5.12 15.36 10.24 30.72 10.24 46.08 0 15.36-5.12 30.72-10.24 46.08s-15.36 30.72-25.6 40.96c-10.24 10.24-25.6 20.48-40.96 25.6-30.72 10.24-66.56 10.24-92.16 0-15.36-5.12-30.72-15.36-40.96-25.6-5.12-5.12-10.24-10.24-20.48-10.24H665.6c-5.12 5.12-10.24 5.12-15.36 10.24s-5.12 10.24-5.12 15.36v5.12c0 30.72-15.36 66.56-35.84 87.04-30.72 30.72-61.44 40.96-92.16 40.96z m-163.84-235.52c15.36 0 30.72 5.12 46.08 10.24 20.48 5.12 35.84 20.48 46.08 35.84 15.36 20.48 20.48 40.96 25.6 61.44 0 15.36 5.12 30.72 15.36 35.84 15.36 15.36 51.2 15.36 66.56 0 10.24-10.24 15.36-20.48 15.36-30.72v-5.12c0-20.48 5.12-40.96 20.48-61.44 10.24-15.36 25.6-30.72 46.08-40.96s40.96-10.24 61.44-5.12c20.48 5.12 40.96 15.36 56.32 30.72 5.12 5.12 10.24 10.24 20.48 15.36s25.6 5.12 35.84 0c5.12 0 10.24-5.12 15.36-10.24 5.12-5.12 10.24-10.24 10.24-15.36s5.12-10.24 5.12-15.36 0-10.24-5.12-20.48c0-5.12-5.12-10.24-10.24-15.36-20.48-20.48-30.72-35.84-30.72-61.44-5.12-20.48 0-40.96 5.12-61.44 10.24-20.48 20.48-35.84 40.96-46.08 15.36-10.24 35.84-20.48 61.44-20.48 15.36 0 30.72-5.12 35.84-15.36 10.24-10.24 15.36-20.48 15.36-30.72 0-10.24-5.12-25.6-15.36-30.72-10.24-10.24-20.48-15.36-30.72-15.36h-5.12c-20.48 0-40.96-5.12-61.44-20.48-15.36-10.24-30.72-30.72-40.96-46.08 0-5.12 0-5.12-5.12-10.24-5.12-15.36-10.24-35.84-5.12-56.32 5.12-20.48 15.36-40.96 30.72-56.32 0-10.24 0-15.36 5.12-25.6 0-5.12 5.12-10.24 5.12-20.48s0-10.24-5.12-20.48c-5.12 0-5.12-5.12-10.24-10.24s-10.24-10.24-15.36-10.24c-10.24-5.12-25.6-5.12-35.84 0-5.12 0-10.24 5.12-15.36 10.24-20.48 20.48-35.84 30.72-61.44 30.72-20.48 5.12-40.96 0-61.44-5.12-20.48-10.24-35.84-20.48-46.08-40.96-15.36-15.36-20.48-35.84-20.48-56.32 0-15.36-5.12-30.72-15.36-35.84-15.36-15.36-51.2-15.36-66.56 0-5.12 5.12-10.24 20.48-10.24 30.72v5.12c0 20.48-5.12 40.96-20.48 61.44-10.24 20.48-25.6 30.72-46.08 40.96-5.12 0-5.12 0-10.24 5.12-20.48 5.12-35.84 5.12-56.32 0-20.48 0-40.96-10.24-56.32-25.6-5.12-10.24-10.24-10.24-20.48-15.36s-25.6-5.12-35.84 0c-5.12 5.12-10.24 5.12-15.36 10.24 0 5.12-5.12 10.24-10.24 15.36 0 5.12-5.12 10.24-5.12 20.48s0 10.24 5.12 20.48c5.12 0 10.24 5.12 10.24 10.24 20.48 20.48 30.72 35.84 30.72 61.44 5.12 20.48 0 40.96-5.12 61.44s-20.48 35.84-35.84 51.2c-20.48 10.24-40.96 15.36-61.44 15.36-15.36 0-30.72 5.12-35.84 15.36s-15.36 20.48-15.36 30.72c0 10.24 5.12 25.6 15.36 30.72s20.48 20.48 30.72 20.48h5.12c20.48 0 40.96 5.12 61.44 20.48 15.36 10.24 30.72 30.72 40.96 46.08 10.24 20.48 10.24 40.96 5.12 61.44s-15.36 40.96-30.72 56.32c-5.12 5.12-5.12 10.24-10.24 20.48 0 5.12-5.12 10.24-5.12 20.48s0 10.24 5.12 20.48c5.12 0 5.12 5.12 10.24 10.24s10.24 10.24 15.36 10.24c10.24 5.12 25.6 5.12 35.84 0 5.12 0 10.24-5.12 15.36-10.24 20.48-20.48 35.84-30.72 61.44-30.72 5.12-5.12 10.24-5.12 15.36-5.12z m476.16-143.36z" fill="#1296db" p-id="40613"></path></svg>