<?xml version="1.0" standalone="no"?><!DOCTYPE svg PUBLIC "-//W3C//DTD SVG 1.1//EN" "http://www.w3.org/Graphics/SVG/1.1/DTD/svg11.dtd"><svg t="1730394357319" class="icon" viewBox="0 0 1024 1024" version="1.1" xmlns="http://www.w3.org/2000/svg" p-id="18336" xmlns:xlink="http://www.w3.org/1999/xlink" width="200" height="200"><path d="M199.095 0h625.81A199.314 199.314 0 0 1 1024 199.095v625.81A199.314 199.314 0 0 1 824.905 1024h-625.81A199.314 199.314 0 0 1 0 824.905v-625.81A199.314 199.314 0 0 1 199.095 0z" fill="#170B1A" p-id="18337"></path><path d="M511.415 302.08c0.585-64.366 0-128.585 0.585-192.841h131.401a163.767 163.767 0 0 0 2.853 33.572h-96.695v522.24a124.782 124.782 0 0 1-15.945 63.708 107.85 107.85 0 0 1-83.054 52.919 111.397 111.397 0 0 1-63.159-13.093 108.398 108.398 0 0 1-36.974-32.914 108.47 108.47 0 0 0 109.715-3.986A111.653 111.653 0 0 0 512 638.28c-0.585-112.055-0.585-224.146-0.585-336.201z m216.759-36.974a190.464 190.464 0 0 0 59.72 25.015 170.057 170.057 0 0 0 38.108 3.986v29.587a187.319 187.319 0 0 1-97.865-58.515z" fill="#25F4EE" p-id="18338"></path><path d="M274.761 428.946a238.007 238.007 0 0 1 159.305-33.572v31.305a287.269 287.269 0 0 0-43.885 5.12 249.454 249.454 0 0 0-97.61 43.63 237.093 237.093 0 0 0-71.68 90.44 243.42 243.42 0 0 0-23.405 108.252 246.053 246.053 0 0 0 30.72 116.626 186.258 186.258 0 0 0 32.914 45.495 233.399 233.399 0 0 1-68.279-75.08A246.272 246.272 0 0 1 159.27 629.76a250.149 250.149 0 0 1 35.84-120.027 240.347 240.347 0 0 1 79.652-80.787z" fill="#25F4EE" p-id="18339"></path><path d="M549.559 142.629h97.28a199.424 199.424 0 0 0 18.761 53.65 163.877 163.877 0 0 0 58.039 64.841 13.275 13.275 0 0 1 3.986 3.986 186.734 186.734 0 0 0 98.414 58.515c0.585 34.12 0 68.827 0 102.985A308.15 308.15 0 0 1 645.12 369.37c0 81.92 0 163.84 0.585 245.76 0 10.972 0.585 21.614 0 32.915a268.8 268.8 0 0 1-35.255 113.773 247.406 247.406 0 0 1-68.279 77.386 219.429 219.429 0 0 1-124.598 42.678 270.19 270.19 0 0 1-67.694-5.705 243.566 243.566 0 0 1-87.04-38.107l-1.719-1.719a202.46 202.46 0 0 1-32.914-45.495A248.686 248.686 0 0 1 292.57 475.43a249.454 249.454 0 0 1 97.866-43.886 279.15 279.15 0 0 1 43.885-5.12c0.585 13.092 0 26.185 0.585 38.692v66.56a94.171 94.171 0 0 0-51.785-1.718 128 128 0 0 0-55.735 27.318 101.851 101.851 0 0 0-23.88 30.135 112.165 112.165 0 0 0-11.374 63.708 107.3 107.3 0 0 0 25.014 57.453 140.8 140.8 0 0 0 32.915 27.868 108.398 108.398 0 0 0 36.973 32.914 116.297 116.297 0 0 0 62.794 13.276 106.423 106.423 0 0 0 83.053-52.92 124.782 124.782 0 0 0 15.945-63.707c1.134-175.213 0.586-349.293 0.586-523.373z" fill="#FFFFFF" p-id="18340"></path><path d="M646.839 142.629c11.374 0.585 22.747 0 34.706 0a187.1 187.1 0 0 0 34.121 107.52c2.853 3.986 5.705 7.314 8.521 10.971a159.707 159.707 0 0 1-58.038-64.841 214.235 214.235 0 0 1-19.31-53.65z m179.2 180.918a170.057 170.057 0 0 0 38.107 3.987v132.535a310.857 310.857 0 0 1-182.6-59.173v262.839a229.595 229.595 0 0 1-5.706 59.172A244.297 244.297 0 0 1 579.145 870.4a236.727 236.727 0 0 1-86.455 38.693 238.994 238.994 0 0 1-229.376-71.132 234.057 234.057 0 0 0 87.04 38.108 270.19 270.19 0 0 0 67.694 5.705 219.429 219.429 0 0 0 124.599-42.68 254.72 254.72 0 0 0 68.279-77.384 268.8 268.8 0 0 0 35.255-113.774 319.122 319.122 0 0 0 0-32.914c-0.586-81.92-0.586-163.84-0.586-245.76a308.15 308.15 0 0 0 180.92 57.417c-0.476-34.158 0-68.864-0.476-102.985z" fill="#FE2C55" p-id="18341"></path><path d="M434.615 426.094a285.586 285.586 0 0 1 38.107 2.267v135.973a103.863 103.863 0 0 0-57.453-2.268 111.067 111.067 0 0 0-64.183 173.02 119.552 119.552 0 0 1-32.915-27.868 107.3 107.3 0 0 1-25.014-57.453 112.165 112.165 0 0 1 11.373-63.708 101.851 101.851 0 0 1 23.881-30.135 138.203 138.203 0 0 1 55.735-27.319 94.171 94.171 0 0 1 51.785 1.72v-66.56c-1.133-11.374-0.585-24.467-1.133-37.56z" fill="#FE2C55" p-id="18342"></path></svg>