<?xml version="1.0" standalone="no"?><!DOCTYPE svg PUBLIC "-//W3C//DTD SVG 1.1//EN" "http://www.w3.org/Graphics/SVG/1.1/DTD/svg11.dtd"><svg t="1772184063351" class="icon" viewBox="0 0 1024 1024" version="1.1" xmlns="http://www.w3.org/2000/svg" p-id="1786" xmlns:xlink="http://www.w3.org/1999/xlink" width="200" height="200"><path d="M0 0.127984m170.645336 0l682.581344 0q170.645336 0 170.645336 170.645336l0 682.581344q0 170.645336-170.645336 170.645336l-682.581344 0q-170.645336 0-170.645336-170.645336l0-682.581344q0-170.645336 170.645336-170.645336Z" fill="#0068FF" p-id="1787"></path><path d="M198.58851 841.494813L360.516713 1024H853.22668c94.238887 0 170.645336-76.406449 170.645336-170.645336v-80.018442H318.793929l-120.205419 68.158591z" fill="#005BE0" p-id="1788"></path><path d="M1023.872016 0.127984l-0.142204 790.144787c-15.557166 13.552084-35.067617 25.881209-58.531351 36.944716-91.409018 43.116388-176.944993 65.513589-332.047383 65.513588-155.11661 0-286.954353-76.321127-286.954353-76.321126-50.781208 22.3972-81.298282 28.256024-136.487828 28.256023-14.163563 0-13.210793-8.788235-9.001541-12.627755 39.106223-35.750198 42.263162-71.415073 41.040203-95.30542-1.222958-23.890347-110.492855-138.364927-110.492855-324.553208 0-115.413129 12.428669-178.025747 36.987377-254.645503C184.52449 106.738658 217.402158 54.279437 266.875085 0.127984H1023.872016zM873.789443 364.214029a97.55225 97.55225 0 0 0-97.452707 97.353164 97.55225 97.55225 0 0 0 97.452707 97.381605 97.55225 97.55225 0 0 0 97.466928-97.381605 97.55225 97.55225 0 0 0-97.466928-97.353164z m-136.445167-38.935578H698.366038v220.687081c0 7.167104 5.830382 12.983266 12.997486 12.983266h25.994973V325.278451z m-175.423405 38.935578a97.55225 97.55225 0 0 0-97.466928 97.353164 97.55225 97.55225 0 0 0 97.452708 97.381605 96.613701 96.613701 0 0 0 58.474468-19.979725v6.996459c0 7.152884 5.830382 12.983266 13.011707 12.983266h25.994973V370.698552h-38.99246v13.480981a96.613701 96.613701 0 0 0-58.474468-19.965504z m-90.953964-38.964019l-207.902901 0.028441v38.935578h138.265383L256.536822 532.968046h0.696802c-4.251913 5.474871-7.167104 12.030496-7.167105 19.482009v6.484523H444.957714a12.983266 12.983266 0 0 0 12.997486-12.983266v-25.994973h-138.279604l144.778347-168.768238h-0.668361c4.223472-5.460651 7.167104-12.016276 7.167104-19.453568v-6.512963z m90.939744 77.913817a58.53135 58.53135 0 0 1 58.474468 58.403366 58.559791 58.559791 0 0 1-58.446028 58.431807 58.53135 58.53135 0 0 1-58.488688-58.417587 58.53135 58.53135 0 0 1 58.460248-58.417586z m311.882792 0a58.53135 58.53135 0 0 1 58.474468 58.403366 58.53135 58.53135 0 0 1-58.474468 58.403366 58.53135 58.53135 0 0 1-58.460248-58.403366 58.53135 58.53135 0 0 1 58.460248-58.403366z" fill="#FFFFFF" p-id="1789"></path></svg>