<?xml version="1.0" standalone="no"?><!DOCTYPE svg PUBLIC "-//W3C//DTD SVG 1.1//EN" "http://www.w3.org/Graphics/SVG/1.1/DTD/svg11.dtd"><svg t="1773224358642" class="icon" viewBox="0 0 1024 1024" version="1.1" xmlns="http://www.w3.org/2000/svg" p-id="22517" xmlns:xlink="http://www.w3.org/1999/xlink" width="200" height="200"><path d="M0 512c0 282.77 229.23 512 512 512s512-229.23 512-512S794.77 0 512 0 0 229.23 0 512z" fill="#F4F9FF" p-id="22518"></path><path d="M372.43 356c4.39-70.21 61.44-126.39 131.65-130.77a140.55 140.55 0 0 1 148.33 140.41c0 77.24-63.19 140.43-140.43 140.43-80.75 0-144.82-68.46-139.55-150.07z m420.41 406.35a23.6 23.6 0 0 1-23.7 23.7H255.7a23.6 23.6 0 0 1-23.7-23.7v-70.21c0-93 186.95-140.43 280-140.43s280 46.52 280 140.43z" fill="#9DCCFF" p-id="22519"></path></svg>