<svg t="1731027183660" class="icon" viewBox="0 0 1024 1024" version="1.1" xmlns="http://www.w3.org/2000/svg" p-id="20196" width="200" height="200"><path d="M512 0a512 512 0 1 0 0 1024A512 512 0 0 0 512 0m0 73.142857c242.029714 0 438.857143 196.827429 438.857143 438.857143 0 241.956571-196.827429 438.857143-438.857143 438.857143-241.956571 0-438.857143-196.900571-438.857143-438.857143 0-242.029714 196.900571-438.857143 438.857143-438.857143" fill="#515151" p-id="20197"></path><path d="M634.221714 757.101714H389.705143c-80.457143 0-145.92-56.173714-145.92-125.074285V466.358857c0-25.380571 8.777143-49.737143 25.234286-70.509714 27.062857-34.304 72.265143-54.710857 120.685714-54.710857a36.571429 36.571429 0 1 1 0 73.142857c-25.892571 0-50.176 10.313143-63.341714 27.062857a39.497143 39.497143 0 0 0-9.435429 25.014857V631.954286c0 28.16 33.353143 52.004571 72.777143 52.004571h244.516571c39.497143 0 72.777143-23.844571 72.777143-51.931428V466.358857c0-28.233143-33.28-52.077714-72.777143-52.077714a36.571429 36.571429 0 0 1 0-73.142857c80.457143 0 145.92 56.173714 145.92 125.220571V631.954286c0 68.973714-65.462857 125.147429-145.92 125.147428" fill="#515151" p-id="20198"></path><path d="M512 603.282286a36.571429 36.571429 0 0 1-36.571429-36.571429v-302.811428a36.571429 36.571429 0 0 1 73.142858 0v302.811428a36.571429 36.571429 0 0 1-36.571429 36.571429" fill="#515151" p-id="20199"></path><path d="M512 635.465143c-24.283429 0-48.566857-9.069714-67.072-27.209143l-69.046857-67.657143a36.498286 36.498286 0 0 1-0.512-51.712 36.425143 36.425143 0 0 1 51.712-0.512l69.046857 67.657143a22.820571 22.820571 0 0 0 31.744 0l69.12-67.730286a36.571429 36.571429 0 0 1 51.126857 52.297143l-69.046857 67.657143A95.524571 95.524571 0 0 1 512 635.465143" fill="#515151" p-id="20200"></path></svg>
