<svg t="1731010341657" class="icon" viewBox="0 0 1024 1024" version="1.1" xmlns="http://www.w3.org/2000/svg" p-id="9420" width="200" height="200"><path d="M102.4 512a409.6 409.6 0 1 1 409.6 409.6 409.6 409.6 0 0 1-409.6-409.6z m58.0096 0A351.5904 351.5904 0 1 0 512 160.4096 352.1024 352.1024 0 0 0 160.4096 512z m417.3312 173.2096c-35.84-24.1152-56.32-39.0656-91.2384-62.5664-40.3456-27.0848-14.1312-41.984 8.9088-66.56 5.9904-6.3488 110.4896-103.5264 112.64-112.2304a8.5504 8.5504 0 0 0-1.9968-7.3728 9.0624 9.0624 0 0 0-8.3968-0.9216q-5.5296 1.2288-172.4416 116.3776a76.4928 76.4928 0 0 1-44.2368 16.6912 290.2528 290.2528 0 0 1-63.5904-15.36c-25.6-8.4992-46.08-12.9536-44.1344-27.2896 1.024-7.5264 11.1104-15.36 30.4128-23.0912Q432.8448 445.44 499.712 416.512h-43.52L398.7456 332.8 373.76 359.936v56.32h-46.7968v-199.68H373.76v87.3984L449.8432 216.576h57.7024L432.9472 296.2432l79.4624 114.6368 29.5424-12.6976c113.5616-48.2304 137.0624-56.32 152.5248-56.8832a27.136 27.136 0 0 1 15.7696 5.12 17.2544 17.2544 0 0 1 5.7856 11.264A76.4416 76.4416 0 0 1 716.8 373.76c-6.144 66.048-32.7168 226.0992-46.08 299.9808-5.7344 31.2832-17.1008 41.7792-28.0064 42.752h-3.9936c-21.8624 0-39.168-17.0496-60.8256-31.5904z" p-id="9421" fill="#1296db"></path></svg>
