<svg t="1731240926730" class="icon" viewBox="0 0 1024 1024" version="1.1" xmlns="http://www.w3.org/2000/svg" p-id="7970" width="512" height="512"><path d="M190.848 199.68a44.8 44.8 0 1 1 64.192 62.464A356.992 356.992 0 0 0 153.6 512c0 39.552 6.4 78.08 18.752 114.752a44.8 44.8 0 1 1-84.864 28.672A447.488 447.488 0 0 1 64 512c0-118.208 46.08-229.312 126.848-312.32zM325.12 919.296a44.8 44.8 0 0 1 37.44-81.408A356.864 356.864 0 0 0 512 870.4c90.944 0 176.512-33.92 242.176-94.208a44.8 44.8 0 1 1 60.608 66.048A446.464 446.464 0 0 1 512 960a446.464 446.464 0 0 1-186.88-40.704zM960 512a44.8 44.8 0 0 1-89.6 0 357.056 357.056 0 0 0-103.296-251.712A357.12 357.12 0 0 0 512 153.6 44.8 44.8 0 0 1 512 64a446.72 446.72 0 0 1 318.912 133.376A446.656 446.656 0 0 1 960 512z m-237.632 142.72v33.472c0 4.608-15.68 22.208-30.592 22.208-14.848 0-30.08-12.608-30.08-22.208v-33.408c0-76.8-51.776-111.552-140.48-111.552-88.768 0-139.776 34.688-139.776 111.552v33.408c0 9.6-19.648 22.208-30.72 22.208-11.136 0-30.72-12.608-30.72-22.208v-33.408c0-74.496 54.4-134.784 130.56-158.08-33.792-22.976-57.408-61.248-57.408-103.424 0-68.096 60.992-130.88 127.68-130.88 66.624 0 128 62.208 128 130.304 0 42.24-23.488 80.832-57.28 103.936 76.352 23.232 130.816 83.584 130.816 158.08z m-128-262.016c0-33.28-26.048-74.304-73.6-74.304-44.544 0-72.64 36.288-72.64 74.24 0 38.016 29.632 75.328 73.152 75.2 43.52-0.064 73.088-41.92 73.088-75.136zM819.2 665.6a64 64 0 1 1 128 0 64 64 0 0 1-128 0zM294.4 140.8a64 64 0 1 1 128 0 64 64 0 0 1-128 0zM153.6 787.2a64 64 0 1 1 128 0 64 64 0 0 1-128 0z" p-id="7971" fill="#515151"></path></svg>
